<?xml version="1.0" encoding="UTF-8" standalone="no"?>
<svg
   xmlns:dc="http://purl.org/dc/elements/1.1/"
   xmlns:cc="http://creativecommons.org/ns#"
   xmlns:rdf="http://www.w3.org/1999/02/22-rdf-syntax-ns#"
   xmlns:svg="http://www.w3.org/2000/svg"
   xmlns="http://www.w3.org/2000/svg"
   xmlns:sodipodi="http://sodipodi.sourceforge.net/DTD/sodipodi-0.dtd"
   xmlns:inkscape="http://www.inkscape.org/namespaces/inkscape"
   width="1539.947"
   height="1483.5762"
   version="1.1"
   id="svg11"
   sodipodi:docname="flagB.svg"
   inkscape:version="0.92.5 (2060ec1f9f, 2020-04-08)">
  <defs
     id="defs15" />
  <sodipodi:namedview
     pagecolor="#ffffff"
     bordercolor="#666666"
     borderopacity="1"
     objecttolerance="10"
     gridtolerance="10"
     guidetolerance="10"
     inkscape:pageopacity="0"
     inkscape:pageshadow="2"
     inkscape:window-width="1366"
     inkscape:window-height="704"
     id="namedview13"
     showgrid="false"
     inkscape:zoom="0.16"
     inkscape:cx="690.35968"
     inkscape:cy="865.49965"
     inkscape:window-x="0"
     inkscape:window-y="27"
     inkscape:window-maximized="1"
     inkscape:current-layer="layer1" />
  <title
     id="title2">flag outline</title>
  <metadata
     id="metadata4">image/svg+xmlWaving Red FlagMohamed IbrahimMohamed Ibrahimflag red wave waving flagged wrong error mark pole<rdf:RDF>
  <cc:Work
     rdf:about="">
    <dc:format>image/svg+xml</dc:format>
    <dc:type
       rdf:resource="http://purl.org/dc/dcmitype/StillImage" />
    <dc:title>flag outline</dc:title>
  </cc:Work>
</rdf:RDF>
</metadata>
  <g
     inkscape:groupmode="layer"
     id="layer1"
     inkscape:label="Layer 1"
     transform="translate(948.709,86.29619)">
    <path
       style="fill:#ffffff;stroke-width:4.24310589"
       d="M -788.36583,703.65611 V 56.465296 h 661.84642 661.84648 V 703.65611 1350.847 h -661.84648 -661.84642 z m 506.55021,623.85779 c 9.8017,-11.7375 0.76001,-50.4256 -38.82588,-166.1304 -69.84722,-204.15473 -139.86742,-412.7343 -138.85715,-413.63419 0.54558,-0.48595 30.67931,-12.32914 66.96382,-26.31818 114.8793,-44.29027 185.76384,-63.93403 262.02204,-72.6124 30.958745,-3.52316 35.619245,-3.01936 55.672938,6.01802 12.037194,5.42474 37.413449,19.7623 56.391762,31.8613 57.003394,36.34073 88.725976,44.38171 133.4097,33.8166 9.98256,-2.36029 39.21851,-8.96685 64.96881,-14.68123 25.7503,-5.71436 101.08004,-28.05285 167.39946,-49.64113 l 120.58064,-39.2513 -2.64842,-25.38002 C 463.80546,577.60192 451.39081,532.86963 437.6743,492.15582 423.95788,451.44202 394.04764,359.12216 371.2074,287.0006 348.36718,214.879 328.34997,154.34277 326.72493,152.47561 c -1.62533,-1.86716 -38.19185,9.7367 -81.25914,25.78635 -123.09411,45.87279 -207.134369,67.96835 -263.760698,69.34698 -26.922662,0.65545 -42.361756,-6.22261 -99.233682,-44.20854 -57.35075,-38.30573 -78.92916,-46.95474 -110.57976,-44.32242 -40.72068,3.3867 -153.31693,29.90788 -283.37635,66.74716 -65.39896,18.52419 -119.97574,33.68039 -121.28173,33.68039 -1.30598,0 -2.37452,-2.59853 -2.37452,-5.77454 0,-10.46792 -17.33353,-28.06548 -27.64444,-28.06548 -7.69129,0 -11.15844,3.48358 -15.00959,15.08073 -6.67108,20.08892 -3.79776,33.35266 25.59804,118.16442 20.56648,59.33773 287.26077,833.82324 322.08072,935.32894 7.03863,20.5186 13.31586,31.542 19.70936,34.6113 13.42616,6.4452 22.44468,6.0235 28.59124,-1.337 z"
       id="path125"
       inkscape:connector-curvature="0" />
    <path
       style="fill:#ffffff;stroke-width:3.9369092"
       d="M -965.89352,1155.1521 V 860.43401 h 813.85801 813.85801 v 294.71809 294.7182 h -813.85801 -813.85801 z"
       id="path173-3"
       inkscape:connector-curvature="0" />
    <path
       style="fill:#000000;stroke-width:0.75600451"
       d="m -670.63209,239.78337 14.29942,-5.54164 186.70611,546.19387 186.70608,546.1938 -14.29939,5.5419 -14.29942,5.5415 -186.7061,-546.1939 -186.7061,-546.19391 z"
       id="path173-3-6-7-5-0"
       inkscape:connector-curvature="0" />
    <path
       style="fill:#000000;stroke-width:0.73309958"
       d="m -654.39367,264.01567 13.74127,-5.42259 179.41841,534.46042 179.41837,534.4604 -13.74124,5.4228 -13.74127,5.4225 -179.4184,-534.46049 -179.41839,-534.46046 z"
       id="path173-3-6-7-5-0-9"
       inkscape:connector-curvature="0" />
    <path
       style="fill:#ffffff;stroke-width:0.47314489"
       d="m -457.80521,741.43085 17.30765,4.70962 76.34775,220.94259 76.34775,220.94274 -17.30766,-4.7095 -17.30769,-4.7097 -76.34779,-220.94274 -76.34776,-220.9426 z"
       id="path173-3-6-7-5-0-9-3"
       inkscape:connector-curvature="0" />
    <path
       style="fill:#ffffff;stroke-width:2.63289475"
       d="M -1170.9738,30.296939 V -86.29619 H -250.86582 669.2422 V 30.296939 146.8901 h -920.10802 -920.10798 z"
       id="path173-3-3"
       inkscape:connector-curvature="0" />
    <path
       style="fill:#ffffff;stroke-width:1.90886331"
       d="M 555.89491,45.95962 H 641.238 V 706.6927 1367.4256 H 555.89491 470.55182 V 706.6927 45.95962 Z"
       id="path173-3-6"
       inkscape:connector-curvature="0" />
    <path
       style="fill:#ffffff;stroke-width:2.74161458"
       d="m -882.11584,0.81395 h 166.59315 V 699.04696 1397.28 H -882.11584 -1048.709 V 699.04696 0.81395 Z"
       id="path173-3-36"
       inkscape:connector-curvature="0" />
  </g>
  <g
     id="g9"
     transform="matrix(2.9872936,0,0,2.9872936,-303.141,-2.74081)">
    <title
       id="title5">Layer 1</title>
    <path
       id="path908"
       d="m 528.81586,78.1875 c -38.87567,14.406189 -77.74646,31.798 -119.29367,34.27534 -26.86301,-4.24635 -45.5983,-38.537814 -74.83261,-30.03416 -43.90696,8.126472 -86.76467,21.44297 -129.71679,33.9409 -9.38528,-25.788937 -22.48872,-7.97959 -10.91128,16.94808 38.60097,114.1817 78.2776,228.43032 117.02406,342.55505 27.76325,19.46341 4.57071,-36.07126 0.15006,-49.84689 -16.35947,-48.36002 -32.86737,-96.66303 -48.8642,-145.16407 40.07935,-16.06268 81.32968,-33.06626 124.39535,-35.04637 24.33463,6.8378 43.75974,36.39043 72.21006,24.72548 40.15686,-5.91791 77.94235,-22.477 116.71499,-34.2139 1.42304,-23.09402 -14.67157,-49.24002 -19.7959,-73.52839 -9.00866,-28.21039 -18.01678,-56.42099 -27.08007,-84.611071 z m -3.06043,6.923859 c 15.57288,48.713511 31.14557,97.427061 46.71839,146.140591 -44.05591,14.49997 -87.90793,33.76853 -134.45816,35.64484 -25.67841,-6.25845 -43.51798,-34.1214 -74.49811,-24.26044 -35.27341,6.89055 -69.4621,19.03009 -102.77005,33.11655 -17.78147,-51.52469 -35.64819,-103.01532 -53.58869,-154.47612 45.98203,-12.98249 91.62656,-28.434045 138.96146,-34.730851 27.9711,3.938133 47.27918,39.231481 77.69794,30.412861 35.06549,-6.01653 68.64911,-18.967602 101.93722,-31.847431 z M 222.13249,180.23242 c 29.70584,84.50925 58.20256,169.59 86.66536,254.52606 6.57126,8.24826 17.07492,51.62244 2.24252,30.04401 C 272.3179,347.63724 232.38623,229.23094 193.10529,112.20546 c 7.9765,-9.38978 18.96258,45.46849 29.0272,68.02696 z"
       inkscape:connector-curvature="0"
       style="fill:#000000" />
  </g>
  <g
     inkscape:groupmode="layer"
     id="layer2"
     inkscape:label="Layer 2"
     transform="translate(948.709,86.29619)" />
</svg>
