<?xml version="1.0" encoding="UTF-8" standalone="no"?>
<svg
   xmlns:dc="http://purl.org/dc/elements/1.1/"
   xmlns:cc="http://creativecommons.org/ns#"
   xmlns:rdf="http://www.w3.org/1999/02/22-rdf-syntax-ns#"
   xmlns:svg="http://www.w3.org/2000/svg"
   xmlns="http://www.w3.org/2000/svg"
   xmlns:sodipodi="http://sodipodi.sourceforge.net/DTD/sodipodi-0.dtd"
   xmlns:inkscape="http://www.inkscape.org/namespaces/inkscape"
   width="640"
   height="480"
   version="1.1"
   id="svg11"
   sodipodi:docname="flag.svg"
   inkscape:version="0.92.5 (2060ec1f9f, 2020-04-08)">
  <defs
     id="defs15" />
  <sodipodi:namedview
     pagecolor="#ffffff"
     bordercolor="#666666"
     borderopacity="1"
     objecttolerance="10"
     gridtolerance="10"
     guidetolerance="10"
     inkscape:pageopacity="0"
     inkscape:pageshadow="2"
     inkscape:window-width="1366"
     inkscape:window-height="704"
     id="namedview13"
     showgrid="false"
     inkscape:zoom="0.69532167"
     inkscape:cx="530.76797"
     inkscape:cy="275.90851"
     inkscape:window-x="0"
     inkscape:window-y="27"
     inkscape:window-maximized="1"
     inkscape:current-layer="svg11" />
  <title
     id="title2">flag outline</title>
  <metadata
     id="metadata4">image/svg+xmlWaving Red FlagMohamed IbrahimMohamed Ibrahimflag red wave waving flagged wrong error mark pole<rdf:RDF>
  <cc:Work
     rdf:about="">
    <dc:format>image/svg+xml</dc:format>
    <dc:type
       rdf:resource="http://purl.org/dc/dcmitype/StillImage" />
    <dc:title>flag outline</dc:title>
  </cc:Work>
</rdf:RDF>
</metadata>
  <g
     id="g9"
     transform="translate(-54.650965,-33.078215)">
    <title
       id="title5">Layer 1</title>
    <path
       id="path908"
       d="m 528.81586,78.1875 c -38.87567,14.406189 -77.74646,31.798 -119.29367,34.27534 -26.86301,-4.24635 -45.5983,-38.537814 -74.83261,-30.03416 -43.90696,8.126472 -86.76467,21.44297 -129.71679,33.9409 -9.38528,-25.788937 -22.48872,-7.97959 -10.91128,16.94808 38.60097,114.1817 78.2776,228.43032 117.02406,342.55505 27.76325,19.46341 4.57071,-36.07126 0.15006,-49.84689 -16.35947,-48.36002 -32.86737,-96.66303 -48.8642,-145.16407 40.07935,-16.06268 81.32968,-33.06626 124.39535,-35.04637 24.33463,6.8378 43.75974,36.39043 72.21006,24.72548 40.15686,-5.91791 77.94235,-22.477 116.71499,-34.2139 1.42304,-23.09402 -14.67157,-49.24002 -19.7959,-73.52839 -9.00866,-28.21039 -18.01678,-56.42099 -27.08007,-84.611071 z m -3.06043,6.923859 c 15.57288,48.713511 31.14557,97.427061 46.71839,146.140591 -44.05591,14.49997 -87.90793,33.76853 -134.45816,35.64484 -25.67841,-6.25845 -43.51798,-34.1214 -74.49811,-24.26044 -35.27341,6.89055 -69.4621,19.03009 -102.77005,33.11655 -17.78147,-51.52469 -35.64819,-103.01532 -53.58869,-154.47612 45.98203,-12.98249 91.62656,-28.434045 138.96146,-34.730851 27.9711,3.938133 47.27918,39.231481 77.69794,30.412861 35.06549,-6.01653 68.64911,-18.967602 101.93722,-31.847431 z M 222.13249,180.23242 c 29.70584,84.50925 58.20256,169.59 86.66536,254.52606 6.57126,8.24826 17.07492,51.62244 2.24252,30.04401 C 272.3179,347.63724 232.38623,229.23094 193.10529,112.20546 c 7.9765,-9.38978 18.96258,45.46849 29.0272,68.02696 z"
       inkscape:connector-curvature="0"
       style="fill:#000000" />
  </g>
</svg>
